<svg width="512" height="512" viewBox="0 0 512 512" fill="none" xmlns="http://www.w3.org/2000/svg">
<rect width="512" height="512" fill="black"/>
<g transform="translate(120, 120) scale(2.5)">
<path d="M80.1079 89.5323L50.1624 18.5449L21.433 89.3803C21.0277 90.4951 20.6223 91.6098 20.217 92.7245C19.913 93.7379 19.761 94.6499 19.761 95.4606C19.761 97.7914 20.825 99.4635 22.9531 100.477C25.0812 101.389 28.7801 101.946 34.0497 102.149V108.077H0V102.149C2.02676 101.845 3.85085 101.338 5.47227 100.629C7.19502 99.9195 8.46174 98.5514 9.27245 96.5247L45.2982 10.0325L40.586 0H57.4588L99.2608 96.5247C100.072 98.5514 101.237 99.9195 102.757 100.629C104.277 101.338 106.152 101.845 108.381 102.149V108.077H67.6433V102.149C72.9129 101.946 76.5611 101.389 78.5878 100.477C80.7159 99.5648 81.78 97.9434 81.78 95.6126C81.78 94.7006 81.628 93.7379 81.3239 92.7245C81.0199 91.7111 80.6146 90.6471 80.1079 89.5323ZM24.3212 72.8115V66.1232H80.7159V72.8115H24.3212Z" fill="white"/>
</g>
</svg>
