<svg width="561" height="110" viewBox="0 0 561 110" fill="none" xmlns="http://www.w3.org/2000/svg">
<path d="M80.1079 89.5323L50.1624 18.5449L21.433 89.3803C21.0277 90.4951 20.6223 91.6098 20.217 92.7245C19.913 93.7379 19.761 94.6499 19.761 95.4606C19.761 97.7914 20.825 99.4635 22.9531 100.477C25.0812 101.389 28.7801 101.946 34.0497 102.149V108.077H0V102.149C2.02676 101.845 3.85085 101.338 5.47227 100.629C7.19502 99.9195 8.46174 98.5514 9.27245 96.5247L45.2982 10.0325L40.586 0H57.4588L99.2608 96.5247C100.072 98.5514 101.237 99.9195 102.757 100.629C104.277 101.338 106.152 101.845 108.381 102.149V108.077H67.6433V102.149C72.9129 101.946 76.5611 101.389 78.5878 100.477C80.7159 99.5648 81.78 97.9434 81.78 95.6126C81.78 94.7006 81.628 93.7379 81.3239 92.7245C81.0199 91.7111 80.6146 90.6471 80.1079 89.5323ZM24.3212 72.8115V66.1232H80.7159V72.8115H24.3212Z" fill="black"/>
<path d="M171.027 18.3929V70.6834C171.027 76.9664 172.142 82.3373 174.371 86.7962C176.601 91.1538 179.793 94.4472 183.948 96.6767C188.103 98.9061 193.068 100.021 198.845 100.021C205.736 100.021 211.512 99.0075 216.173 96.9807C220.936 94.8526 224.534 91.5591 226.966 87.1002C229.398 82.6413 230.614 76.7637 230.614 69.4674V18.3929C230.614 13.7313 229.297 10.7419 226.662 9.42445C224.027 8.10706 220.176 7.39769 215.109 7.29635V1.36807H254.783V7.29635C249.818 7.39769 246.018 8.10706 243.383 9.42445C240.748 10.7419 239.431 13.7313 239.431 18.3929V72.3555C239.431 80.7666 237.505 87.7083 233.654 93.1805C229.905 98.6528 224.939 102.757 218.758 105.493C212.576 108.128 205.837 109.445 198.541 109.445C190.028 109.445 182.58 108.128 176.196 105.493C169.913 102.757 164.998 98.6528 161.451 93.1805C158.005 87.6069 156.283 80.5639 156.283 72.0515V18.3929C156.283 13.7313 154.965 10.7419 152.33 9.42445C149.696 8.10706 145.845 7.39769 140.778 7.29635V1.36807H186.38V7.29635C181.414 7.39769 177.614 8.10706 174.979 9.42445C172.345 10.7419 171.027 13.7313 171.027 18.3929Z" fill="black"/>
<path d="M391.077 85.5802L414.182 20.065C414.587 18.9502 414.942 17.8862 415.246 16.8728C415.652 15.8594 415.854 14.8967 415.854 13.9847C415.854 11.6539 414.79 9.98182 412.662 8.96844C410.635 7.95505 406.936 7.39769 401.565 7.29635V1.36807H434.703V7.29635C432.676 7.60037 430.852 8.05639 429.231 8.66442C427.609 9.27245 426.393 10.6912 425.583 12.9206L390.621 109.445H386.213L362.956 43.9301L339.85 109.445H335.442L299.417 12.9206C298.606 10.8939 297.339 9.52579 295.616 8.81642C293.995 8.10706 292.171 7.60037 290.144 7.29635V1.36807H330.578V7.29635C325.308 7.39769 321.61 7.95505 319.482 8.96844C317.455 9.88048 316.441 11.5019 316.441 13.8327C316.441 14.7447 316.593 15.7074 316.897 16.7208C317.201 17.7342 317.556 18.7982 317.961 19.913L341.219 85.5802L359.155 32.9856L352.315 12.9206C351.504 10.5898 350.238 9.17111 348.515 8.66442C346.893 8.05639 345.069 7.60037 343.043 7.29635V1.36807H381.957V7.29635C376.687 7.39769 372.988 7.95505 370.86 8.96844C368.732 9.88048 367.668 11.5019 367.668 13.8327C367.668 14.7447 367.82 15.7074 368.124 16.7208C368.428 17.7342 368.783 18.7982 369.188 19.913L391.077 85.5802Z" fill="black"/>
<path d="M532.708 89.5323L502.763 18.5449L474.033 89.3803C473.628 90.4951 473.222 91.6098 472.817 92.7245C472.513 93.7379 472.361 94.6499 472.361 95.4606C472.361 97.7914 473.425 99.4635 475.553 100.477C477.681 101.389 481.38 101.946 486.65 102.149V108.077H452.6V102.149C454.627 101.845 456.451 101.338 458.072 100.629C459.795 99.9195 461.062 98.5514 461.873 96.5247L497.898 10.0325L493.186 0H510.059L551.861 96.5247C552.672 98.5514 553.837 99.9195 555.357 100.629C556.877 101.338 558.752 101.845 560.981 102.149V108.077H520.243V102.149C525.513 101.946 529.161 101.389 531.188 100.477C533.316 99.5648 534.38 97.9434 534.38 95.6126C534.38 94.7006 534.228 93.7379 533.924 92.7245C533.62 91.7111 533.215 90.6471 532.708 89.5323ZM476.921 72.8115V66.1232H533.316V72.8115H476.921Z" fill="black"/>
</svg>
